<svg id="구성_요소_181_51" data-name="구성 요소 181 – 51" xmlns="http://www.w3.org/2000/svg" xmlns:xlink="http://www.w3.org/1999/xlink" width="137" height="137" viewBox="0 0 137 137">
  <defs>
    <filter id="사각형_790">
      <feOffset dx="10" dy="10" input="SourceAlpha"/>
      <feGaussianBlur stdDeviation="10" result="blur"/>
      <feFlood flood-opacity="0.741" result="color"/>
      <feComposite operator="out" in="SourceGraphic" in2="blur"/>
      <feComposite operator="in" in="color"/>
      <feComposite operator="in" in2="SourceGraphic"/>
    </filter>
  </defs>
  <g data-type="innerShadowGroup">
    <rect id="사각형_790-2" data-name="사각형 790" width="137" height="137" rx="68.5" fill="#404040"/>
    <g transform="matrix(1, 0, 0, 1, 0, 0)" filter="url(#사각형_790)">
      <rect id="사각형_790-3" data-name="사각형 790" width="137" height="137" rx="68.5" fill="#fff"/>
    </g>
    <g id="사각형_790-4" data-name="사각형 790" fill="none" stroke="rgba(65,65,65,0.23)" stroke-width="5">
      <rect width="137" height="137" rx="68.5" stroke="none"/>
      <rect x="2.5" y="2.5" width="132" height="132" rx="66" fill="none"/>
    </g>
  </g>
  <path id="패스_909" data-name="패스 909" d="M163.691,165.693,141.131,147.2a.884.884,0,0,0-1.086,0l-22.561,18.494a.884.884,0,0,0,.543,1.582h4.461a.884.884,0,0,1,.885.884V188.3a2.425,2.425,0,0,0,2.425,2.424H133a1.519,1.519,0,0,0,1.519-1.519v-9.82a3.932,3.932,0,0,1,3.932-3.932h4.613A3.933,3.933,0,0,1,147,179.389v9.82a1.519,1.519,0,0,0,1.519,1.519h7.533a2.424,2.424,0,0,0,2.425-2.424V168.16a.884.884,0,0,1,.884-.884h3.786A.884.884,0,0,0,163.691,165.693Z" transform="translate(-72.141 -100.013)" fill="#ededed" stroke="rgba(65,65,65,0.23)" stroke-width="1"/>
</svg>
