<svg xmlns="http://www.w3.org/2000/svg" width="14.564" height="16.285" viewBox="0 0 14.564 16.285">
  <path id="패스_872" data-name="패스 872" d="M1151.379,119.868c-.143-.332-.455-.425-.875-.256-.659.265-1.321.526-1.973.806a.535.535,0,0,1-.551-.048c-.784-.483-1.576-.951-2.364-1.427a2.255,2.255,0,0,1-.192-.143h.016l-.022-.02c.868-.523,1.713-1.023,2.546-1.541a.578.578,0,0,1,.606-.041c.68.3,1.369.572,2.061.841a.573.573,0,1,0,.431-1.062c-.113-.054-.232-.095-.348-.143l-1.213-.5.748-.453c.241-.146.488-.286.723-.442a.566.566,0,0,0,.206-.767.573.573,0,0,0-.788-.215c-.139.071-.271.159-.405.239l-1.083.643c.058-.6.109-1.13.159-1.66a.562.562,0,0,0-.278-.587.582.582,0,0,0-.867.52c-.08.76-.152,1.52-.246,2.278a.482.482,0,0,1-.2.309c-.809.5-1.628.986-2.445,1.475a1.361,1.361,0,0,1-.186.074c0-1.053-.005-2.079.008-3.1a.457.457,0,0,1,.187-.287c.613-.473,1.239-.929,1.852-1.4a.559.559,0,0,0,.141-.8.572.572,0,0,0-.831-.108c-.189.131-.369.275-.554.412l-.8.6c0-.526,0-.976,0-1.425,0-.094,0-.189,0-.283a.575.575,0,0,0-.571-.585.56.56,0,0,0-.568.583c-.008.549,0,1.1,0,1.715l-1.334-1a.577.577,0,1,0-.7.915c.606.465,1.227.911,1.827,1.383a.56.56,0,0,1,.194.378c.016.921.01,1.843.008,2.764,0,.077-.016.153-.029.27-.877-.527-1.714-1.039-2.561-1.534a.483.483,0,0,1-.267-.417c-.065-.719-.141-1.437-.212-2.156-.044-.446-.272-.678-.642-.65s-.547.3-.5.753c.049.5.1,1.01.145,1.522-.056-.005-.08,0-.1-.01q-.54-.319-1.079-.64c-.555-.332-.889-.326-1.09.024s-.057.625.485.952c.383.231.765.464,1.194.724l-1.434.583c-.434.177-.6.479-.458.815s.455.425.875.256c.659-.265,1.321-.526,1.973-.806a.535.535,0,0,1,.551.048c.784.483,1.576.951,2.364,1.427a2.284,2.284,0,0,1,.192.143h-.016l.022.02c-.868.523-1.713,1.023-2.546,1.541a.578.578,0,0,1-.606.041c-.68-.3-1.369-.572-2.061-.841a.573.573,0,1,0-.431,1.062c.113.054.232.095.348.143l1.213.5-.748.453c-.241.146-.488.286-.723.442a.566.566,0,0,0-.206.767.573.573,0,0,0,.788.215c.139-.071.271-.159.405-.239l1.084-.643c-.058.6-.109,1.13-.16,1.66a.562.562,0,0,0,.278.587.582.582,0,0,0,.867-.52c.08-.76.152-1.52.245-2.278a.483.483,0,0,1,.2-.309c.809-.5,1.628-.986,2.445-1.475a1.361,1.361,0,0,1,.186-.074c0,1.053.005,2.079-.008,3.1a.457.457,0,0,1-.187.287c-.613.473-1.239.929-1.852,1.4a.559.559,0,0,0-.141.8.572.572,0,0,0,.831.109c.189-.131.369-.275.554-.412l.8-.6v1.425c0,.094,0,.189,0,.283a.574.574,0,0,0,.571.584.56.56,0,0,0,.568-.583c.008-.548,0-1.1,0-1.715l1.334,1a.577.577,0,1,0,.7-.915c-.606-.465-1.227-.911-1.827-1.383a.56.56,0,0,1-.194-.378c-.016-.921-.01-1.843-.008-2.764,0-.077.016-.153.029-.27.877.527,1.714,1.039,2.561,1.534a.483.483,0,0,1,.267.417c.065.719.141,1.437.213,2.156.044.446.272.678.642.65s.547-.3.5-.753c-.049-.5-.1-1.01-.145-1.522.055.005.08,0,.1.01q.54.319,1.079.64c.555.332.889.326,1.09-.024s.057-.625-.485-.952c-.383-.231-.765-.464-1.194-.724l1.434-.583C1151.355,120.506,1151.524,120.2,1151.379,119.868Z" transform="translate(-1136.98 -110.658)" stroke="#000" stroke-width="0.2"/>
</svg>
