<svg xmlns="http://www.w3.org/2000/svg" width="654.769" height="81.709" viewBox="0 0 654.769 81.709">
  <g id="그룹_3908" data-name="그룹 3908" transform="translate(-212.616 -820.039)">
    <g id="그룹_3425" data-name="그룹 3425" transform="translate(537.527 820.178)">
      <path id="패스_198" data-name="패스 198" d="M4527.427,5487.091v-81.244h14.13v81.244Z" transform="translate(-4527.427 -5405.846)" fill="#fff"/>
      <path id="패스_199" data-name="패스 199" d="M4653.9,5486.9l-35.388-56.666V5486.9h-14.223v-81.245h14.906l35.388,56.666v-56.552h14.338v81.13Z" transform="translate(-4579.069 -5405.658)" fill="#fff"/>
    </g>
    <g id="그룹_3416" data-name="그룹 3416" transform="translate(674.83 822.296)">
      <path id="패스_200" data-name="패스 200" d="M4916.524,5453.9q4.718,4.663,4.156,12.859a17.95,17.95,0,0,1-8.141,14.485,30.834,30.834,0,0,1-17.8,5.168h-30.659v-74.347h31.446q9.768,0,15.385,4.662a16.728,16.728,0,0,1,6.4,10.949,15.845,15.845,0,0,1-2.134,11.118,26.847,26.847,0,0,1-8.311,8.086A35.926,35.926,0,0,1,4916.524,5453.9Zm-11.9-13.42a11.962,11.962,0,0,0,3.932-9.434,10.616,10.616,0,0,0-3.707-8.534q-3.706-3.143-11.118-3.144h-21.675v24.594h21.562Q4900.689,5443.958,4904.619,5440.476Zm2.752,34.927q3.984-3.818,4.21-10.558.225-6.4-4.21-9.994t-12.634-3.594h-22.686v27.964h22.462Q4903.381,5479.222,4907.371,5475.4Z" transform="translate(-4864.078 -5410.49)" fill="#fff"/>
      <path id="패스_201" data-name="패스 201" d="M5069,5420.039q9.32,10.611,9.321,28.132,0,17.745-9.321,28.468t-25.043,10.726q-15.837,0-25.045-10.726t-9.208-28.468q0-17.52,9.208-28.132t25.045-10.614Q5059.677,5409.425,5069,5420.039Zm-6.571,51.49q6.8-8.76,6.795-23.358,0-14.262-6.795-22.911t-18.472-8.647q-11.793,0-18.588,8.647t-6.793,22.911q0,14.6,6.793,23.358t18.588,8.76Q5055.633,5480.289,5062.428,5471.529Z" transform="translate(-4948.317 -5409.425)" fill="#fff"/>
      <path id="패스_202" data-name="패스 202" d="M5226.36,5486.184H5216.7l-21.673-31.22-21.564,31.22h-9.656l26.391-38.07-24.932-36.051h9.658l20.1,29.088,20.214-29.088h9.545L5199.857,5448Z" transform="translate(-5033.806 -5410.49)" fill="#fff"/>
    </g>
    <path id="패스_194" data-name="패스 194" d="M4013.273,5460.151q0,10.683-8.067,18.974t-22.98,8.291q-15.357,0-23.314-8.291t-7.956-18.974v-54.306h14.132v53.192q0,4.564,3.616,9.961t13.521,5.4q9.681,0,13.354-5.4t3.672-9.961v-53.192h14.021Z" transform="translate(-3667.316 -4585.668)" fill="#fff"/>
    <path id="패스_195" data-name="패스 195" d="M4108.825,5487.416v-81.57h14.127v81.57Z" transform="translate(-3751.775 -4585.668)" fill="#fff"/>
    <path id="패스_196" data-name="패스 196" d="M4185.688,5487.416v-81.57h14.3v68.3h41.759v13.271Z" transform="translate(-3803.619 -4585.668)" fill="#fff"/>
    <path id="패스_197" data-name="패스 197" d="M4322.111,5419.346v68.07h-14.53v-68.07h-25.626v-13.5h66.011v13.5Z" transform="translate(-3858.908 -4585.668)" fill="#fff"/>
    <path id="패스_155" data-name="패스 155" d="M3856.462,5451.861a30.889,30.889,0,0,0-8.045-7.588,23.917,23.917,0,0,0,6.448-8.1,19.084,19.084,0,0,0,1.54-11.412,20.834,20.834,0,0,0-7.417-13.008q-6.39-5.587-17.807-5.59h-35.031v45.984h34.233q6.732,0,10.5,2.74c2.5,1.8,3.535,4.939,3.565,8.353a10.469,10.469,0,0,1-3.622,8.078q-3.365,3.079-10.669,3.08h-34v13.462h34.233a33.832,33.832,0,0,0,20.311-6.162,21.091,21.091,0,0,0,9.129-16.773Q3860.4,5456.943,3856.462,5451.861Zm-18.313-15.974q-3.2,2.682-8.9,2.683h-18.827v-18.83h18.942q5.82,0,8.9,2.225a7.575,7.575,0,0,1,3.08,6.561A9.1,9.1,0,0,1,3838.149,5435.888Z" transform="translate(-3583.535 -4586.124)" fill="#fff"/>
  </g>
</svg>
