<svg xmlns="http://www.w3.org/2000/svg" width="144.837" height="28.534" viewBox="0 0 144.837 28.534">
  <g id="그룹_3794" data-name="그룹 3794" transform="translate(-0.001)">
    <g id="그룹_3425" data-name="그룹 3425" transform="translate(113.462 0.049)">
      <path id="패스_198" data-name="패스 198" d="M4527.427,5434.218v-28.372h4.935v28.372Z" transform="translate(-4527.427 -5405.846)" fill="#fff"/>
      <path id="패스_199" data-name="패스 199" d="M4621.613,5434.029l-12.357-19.789v19.789h-4.967v-28.372h5.205l12.358,19.789V5405.7h5.006v28.332Z" transform="translate(-4595.482 -5405.657)" fill="#fff"/>
    </g>
    <path id="패스_194" data-name="패스 194" d="M3972.718,5424.81a9.237,9.237,0,0,1-2.818,6.626q-2.818,2.9-8.025,2.9-5.362,0-8.141-2.9a9.3,9.3,0,0,1-2.778-6.626v-18.964h4.935v18.575a6.369,6.369,0,0,0,1.263,3.479q1.263,1.885,4.721,1.884,3.381,0,4.663-1.884a6.311,6.311,0,0,0,1.282-3.479v-18.575h4.9Z" transform="translate(-3926.153 -5405.797)" fill="#fff"/>
    <path id="패스_195" data-name="패스 195" d="M4108.826,5434.332v-28.485h4.934v28.485Z" transform="translate(-4058.389 -5405.797)" fill="#fff"/>
    <path id="패스_196" data-name="패스 196" d="M4185.688,5434.332v-28.485h4.994V5429.7h14.582v4.634Z" transform="translate(-4126.514 -5405.797)" fill="#fff"/>
    <path id="패스_197" data-name="패스 197" d="M4295.978,5410.561v23.771H4290.9v-23.771h-8.949v-4.714h23.052v4.714Z" transform="translate(-4208.47 -5405.797)" fill="#fff"/>
    <path id="패스_155" data-name="패스 155" d="M3817.212,5422.122a10.778,10.778,0,0,0-2.809-2.65,8.354,8.354,0,0,0,2.252-2.829,6.664,6.664,0,0,0,.537-3.985,7.274,7.274,0,0,0-2.59-4.542,9.142,9.142,0,0,0-6.219-1.953h-12.233v16.058h11.954a6.133,6.133,0,0,1,3.666.958,3.487,3.487,0,0,1,1.245,2.917,3.655,3.655,0,0,1-1.265,2.821,5.4,5.4,0,0,1-3.726,1.075h-11.875v4.7h11.954a11.811,11.811,0,0,0,7.093-2.152,7.363,7.363,0,0,0,3.188-5.857A6.434,6.434,0,0,0,3817.212,5422.122Zm-6.395-5.579a4.693,4.693,0,0,1-3.109.937h-6.575V5410.9h6.615a5.268,5.268,0,0,1,3.109.777,2.646,2.646,0,0,1,1.075,2.291A3.177,3.177,0,0,1,3810.817,5416.543Z" transform="translate(-3796.151 -5406.163)" fill="#fff"/>
  </g>
</svg>
