<svg xmlns="http://www.w3.org/2000/svg" xmlns:xlink="http://www.w3.org/1999/xlink" width="31" height="51" viewBox="0 0 31 51">
  <defs>
    <clipPath id="clip-path">
      <rect id="사각형_1499" data-name="사각형 1499" width="14.778" height="16.897" fill="none"/>
    </clipPath>
  </defs>
  <g id="그룹_4307" data-name="그룹 4307" transform="translate(-915 -694)">
    <rect id="사각형_1500" data-name="사각형 1500" width="31" height="51" rx="15.5" transform="translate(915 694)" fill="#fff"/>
    <g id="그룹_4306" data-name="그룹 4306" transform="translate(923 718.234)">
      <g id="그룹_4305" data-name="그룹 4305" transform="translate(0 0)" clip-path="url(#clip-path)">
        <path id="패스_21365" data-name="패스 21365" d="M.27,11.937l1.7-.979L.521,10.284a.539.539,0,1,1,.456-.977L3.1,10.3,6.311,8.449,3.082,6.584l-2.1.98a.539.539,0,0,1-.456-.977l1.417-.661L.27,4.961a.539.539,0,1,1,.539-.933L2.5,5,2.358,3.413a.539.539,0,1,1,1.074-.094l.2,2.341L6.85,7.515V3.786L4.944,2.451a.539.539,0,0,1,.618-.883l1.288.9V.539a.539.539,0,1,1,1.078,0V2.478l1.3-.909a.539.539,0,1,1,.618.883L7.928,3.794V7.515l3.221-1.86.2-2.329a.539.539,0,0,1,1.074.094L12.289,5l1.681-.97a.539.539,0,1,1,.539.933l-1.677.968,1.428.666a.539.539,0,0,1-.228,1.027.531.531,0,0,1-.227-.051l-2.111-.984L8.467,8.449,11.68,10.3,13.8,9.315a.539.539,0,0,1,.456.977l-1.435.669,1.689.975a.539.539,0,1,1-.539.933L12.285,11.9l.137,1.568a.539.539,0,0,1-.49.584l-.047,0a.539.539,0,0,1-.536-.492l-.2-2.32L7.928,9.382v3.709l1.908,1.336a.539.539,0,1,1-.618.883l-1.29-.9v1.951a.539.539,0,1,1-1.078,0V14.4l-1.3.908a.539.539,0,1,1-.619-.883L6.85,13.087v-3.7l-3.221,1.86-.2,2.31a.539.539,0,0,1-.536.492l-.048,0a.539.539,0,0,1-.49-.584L2.49,11.9l-1.681.97a.539.539,0,1,1-.539-.933" transform="translate(0 0)"/>
      </g>
    </g>
    <text id="ON" transform="translate(931 713)" font-size="10" font-family="Pretendard-Medium, Pretendard" font-weight="500" letter-spacing="-0.008em"><tspan x="-7" y="0">ON</tspan></text>
  </g>
</svg>
